<svg viewBox="0 0 24 24" fill="none" xmlns="http://www.w3.org/2000/svg">
<path vector-effect="non-scaling-stroke" d="M8.99999 12H12M8.99999 12C8.99999 12.3965 9.07692 12.7751 9.21667 13.1216M8.99999 12C8.99999 11.6224 9.06975 11.2611 9.19707 10.9283M15 12H12M15 12C15 11.6224 14.9303 11.2611 14.8029 10.9283M15 12C15 12.3776 14.9303 12.7389 14.8029 13.0717M12 15V12M12 15C11.6219 15 11.2601 14.93 10.9269 14.8024M12 15C12.4299 15 12.8388 14.9096 13.2085 14.7467M12 9V12M12 9C12.4299 9 12.8388 9.09044 13.2085 9.25334M12 9C11.5908 9 11.2008 9.08191 10.8454 9.23022M12 12L9.82377 9.93503M12 12L14.3085 13.916M12 12L9.94168 14.1825M12 12L14.1762 9.93503M12 12L14.8029 10.9283M12 12L9.21667 13.1216M12 12L10.9269 14.8024M12 12L13.2085 9.25334M12 12L14.8029 13.0717M12 12L13.2085 14.7467M12 12L10.8454 9.23022M12 12L9.19707 10.9283M9.82377 9.93503C10.1094 9.63416 10.4567 9.39246 10.8454 9.23022M9.82377 9.93503C9.55415 10.2191 9.33956 10.5559 9.19707 10.9283M14.3085 13.916C14.5165 13.6657 14.6846 13.381 14.8029 13.0717M14.3085 13.916C14.0131 14.2716 13.6371 14.5578 13.2085 14.7467M9.94168 14.1825C9.62921 13.8877 9.38003 13.5266 9.21667 13.1216M9.94168 14.1825C10.224 14.4488 10.5579 14.661 10.9269 14.8024M14.1762 9.93503C14.4458 10.2191 14.6604 10.5559 14.8029 10.9283M14.1762 9.93503C13.9039 9.64814 13.5755 9.41504 13.2085 9.25334M22 12C22 17.5228 17.5228 22 12 22C6.47715 22 2 17.5228 2 12C2 6.47715 6.47715 2 12 2C17.5228 2 22 6.47715 22 12Z" stroke="currentColor"  stroke-width="1.5" stroke-linecap="round" stroke-linejoin="round"/>
</svg>
